<svg width="749" height="482" xmlns="http://www.w3.org/2000/svg" xmlns:xlink="http://www.w3.org/1999/xlink" overflow="hidden"><g transform="translate(-505 -143)"><path d="M536.602 538 661.398 538C677.747 538 691 556.804 691 580 691 603.196 677.747 622 661.398 622L536.602 622C520.253 622 507 603.196 507 580 507 556.804 520.253 538 536.602 538Z" stroke="#000000" stroke-width="4" stroke-miterlimit="8" fill="none" fill-rule="evenodd"/><text font-family="Avenir Next LT Pro,Avenir Next LT Pro_MSFontService,sans-serif" font-weight="400" font-size="24" transform="translate(550.883 589)">Use tape</text><path d="M820.602 146 945.398 146C961.747 146 975 164.804 975 188 975 211.196 961.747 230 945.398 230L820.602 230C804.253 230 791 211.196 791 188 791 164.804 804.253 146 820.602 146Z" stroke="#000000" stroke-width="4" stroke-miterlimit="8" fill="none" fill-rule="evenodd"/><text font-family="Avenir Next LT Pro,Avenir Next LT Pro_MSFontService,sans-serif" font-weight="700" font-size="21" transform="translate(816.486 182)">Maintenance</text><text font-family="Avenir Next LT Pro,Avenir Next LT Pro_MSFontService,sans-serif" font-weight="700" font-size="21" transform="translate(832.013 208)">Flowchart</text><path d="M791 343.5 883 263 975 343.5 883 424Z" stroke="#000000" stroke-width="4" stroke-miterlimit="8" fill="none" fill-rule="evenodd"/><text font-family="Avenir Next LT Pro,Avenir Next LT Pro_MSFontService,sans-serif" font-weight="400" font-size="24" transform="translate(854.879 323)">Does</text><text font-family="Avenir Next LT Pro,Avenir Next LT Pro_MSFontService,sans-serif" font-weight="400" font-size="24" transform="translate(876.633 352)">it</text><text font-family="Avenir Next LT Pro,Avenir Next LT Pro_MSFontService,sans-serif" font-weight="400" font-size="24" transform="translate(847.133 380)">move?</text><path d="M656 459 748 379 840 459 748 539Z" stroke="#000000" stroke-width="4" stroke-miterlimit="8" fill="none" fill-rule="evenodd"/><text font-family="Avenir Next LT Pro,Avenir Next LT Pro_MSFontService,sans-serif" font-weight="400" font-size="21" transform="translate(713.529 454)">Should</text><text font-family="Avenir Next LT Pro,Avenir Next LT Pro_MSFontService,sans-serif" font-weight="400" font-size="21" transform="translate(736.695 480)">it?</text><path d="M932 459 1024 379 1116 459 1024 539Z" stroke="#000000" stroke-width="4" stroke-miterlimit="8" fill="none" fill-rule="evenodd"/><text font-family="Avenir Next LT Pro,Avenir Next LT Pro_MSFontService,sans-serif" font-weight="400" font-size="21" transform="translate(989.601 454)">Should</text><text font-family="Avenir Next LT Pro,Avenir Next LT Pro_MSFontService,sans-serif" font-weight="400" font-size="21" transform="translate(1012.77 480)">it?</text><path d="M820.602 536 945.398 536C961.747 536 975 555.028 975 578.5 975 601.972 961.747 621 945.398 621L820.602 621C804.253 621 791 601.972 791 578.5 791 555.028 804.253 536 820.602 536Z" stroke="#000000" stroke-width="4" stroke-miterlimit="8" fill="none" fill-rule="evenodd"/><text font-family="Avenir Next LT Pro,Avenir Next LT Pro_MSFontService,sans-serif" font-weight="700" font-size="24" transform="translate(847.216 587)">DONE</text><path d="M1097.6 538 1222.4 538C1238.75 538 1252 556.804 1252 580 1252 603.196 1238.75 622 1222.4 622L1097.6 622C1081.25 622 1068 603.196 1068 580 1068 556.804 1081.25 538 1097.6 538Z" stroke="#000000" stroke-width="4" stroke-miterlimit="8" fill="none" fill-rule="evenodd"/><text font-family="Avenir Next LT Pro,Avenir Next LT Pro_MSFontService,sans-serif" font-weight="400" font-size="24" transform="translate(1101.27 589)">Use WD40</text><path d="M885 230 885 252.678 881 252.678 881 230ZM889 250.678 883 262.678 877 250.678Z"/><path d="M0-2 45.4963-2 45.4963 25.6799 41.4963 25.6799 41.4963 0 43.4963 2 0 2ZM49.4963 23.6799 43.4963 35.6799 37.4963 23.6799Z" transform="matrix(-1 1.22465e-16 1.22465e-16 1 791.496 343)"/><path d="M975 341 1025.53 341 1025.53 368.68 1021.53 368.68 1021.53 343 1023.53 345 975 345ZM1029.53 366.68 1023.53 378.68 1017.53 366.68Z"/><path d="M0-2 58.7051-2 58.7051 68.7383 54.7051 68.7383 54.7051 0 56.7051 2 0 2ZM62.7051 66.7383 56.7051 78.7383 50.7051 66.7383Z" transform="matrix(-1 1.22465e-16 1.22465e-16 1 655.705 459)"/><path d="M840 457 885.496 457 885.496 526.25 881.496 526.25 881.496 459 883.496 461 840 461ZM889.496 524.25 883.496 536.25 877.496 524.25Z"/><path d="M0-2 50.5279-2 50.5279 67.2502 46.5279 67.2502 46.5279 0 48.5279 2 0 2ZM54.5279 65.2502 48.5279 77.2502 42.5279 65.2502Z" transform="matrix(-1 1.22465e-16 1.22465e-16 1 931.528 459)"/><path d="M1116 457 1161.5 457 1161.5 527.738 1157.5 527.738 1157.5 459 1159.5 461 1116 461ZM1165.5 525.738 1159.5 537.738 1153.5 525.738Z"/><text font-family="Avenir Next LT Pro,Avenir Next LT Pro_MSFontService,sans-serif" font-weight="400" font-size="24" transform="translate(748.61 335)">YES</text><text font-family="Avenir Next LT Pro,Avenir Next LT Pro_MSFontService,sans-serif" font-weight="400" font-size="24" transform="translate(984.911 332)">NO</text><text font-family="Avenir Next LT Pro,Avenir Next LT Pro_MSFontService,sans-serif" font-weight="400" font-size="24" transform="translate(609.099 449)">NO</text><text font-family="Avenir Next LT Pro,Avenir Next LT Pro_MSFontService,sans-serif" font-weight="400" font-size="24" transform="translate(836.431 449)">YES</text><text font-family="Avenir Next LT Pro,Avenir Next LT Pro_MSFontService,sans-serif" font-weight="400" font-size="24" transform="translate(897.725 449)">NO</text><text font-family="Avenir Next LT Pro,Avenir Next LT Pro_MSFontService,sans-serif" font-weight="400" font-size="24" transform="translate(1116.39 449)">YES</text></g></svg>