<svg width="3693" height="1960" xmlns="http://www.w3.org/2000/svg" xmlns:xlink="http://www.w3.org/1999/xlink" xml:space="preserve" overflow="hidden"><g transform="translate(-39 -406)"><path d="M2213.5 536.5 2213.5 563.511 2819.96 563.511 2819.96 590.522" stroke="#A5A5A5" stroke-width="4.58333" stroke-miterlimit="8" fill="none" fill-rule="evenodd"/><path d="M2405.5 719.5 2405.5 1751.06 2444.09 1751.06" stroke="#FFC000" stroke-width="4.58333" stroke-miterlimit="8" fill="none" fill-rule="evenodd"/><path d="M2405.5 719.5 2405.5 1568.42 2444.09 1568.42" stroke="#FFC000" stroke-width="4.58333" stroke-miterlimit="8" fill="none" fill-rule="evenodd"/><path d="M2405.5 719.5 2405.5 1385.77 2444.09 1385.77" stroke="#FFC000" stroke-width="4.58333" stroke-miterlimit="8" fill="none" fill-rule="evenodd"/><path d="M2405.5 719.5 2405.5 1203.12 2444.09 1203.12" stroke="#FFC000" stroke-width="4.58333" stroke-miterlimit="8" fill="none" fill-rule="evenodd"/><path d="M2405.5 719.5 2405.5 1020.48 2444.09 1020.48" stroke="#FFC000" stroke-width="4.58333" stroke-miterlimit="8" fill="none" fill-rule="evenodd"/><path d="M2405.5 719.5 2405.5 837.833 2444.09 837.833" stroke="#FFC000" stroke-width="4.58333" stroke-miterlimit="8" fill="none" fill-rule="evenodd"/><path d="M2213.5 536.5 2213.5 563.511 2508.69 563.511 2508.69 590.522" stroke="#A5A5A5" stroke-width="4.58333" stroke-miterlimit="8" fill="none" fill-rule="evenodd"/><path d="M1606.5 719.5 1606.5 746.511 2261.19 746.511 2261.19 773.522" stroke="#FFC000" stroke-width="4.58333" stroke-miterlimit="8" fill="none" fill-rule="evenodd"/><path d="M1606.5 719.5 1606.5 746.511 1949.92 746.511 1949.92 773.522" stroke="#FFC000" stroke-width="4.58333" stroke-miterlimit="8" fill="none" fill-rule="evenodd"/><path d="M1536.5 1084.5 1536.5 2298.71 1575.09 2298.71" stroke="#5B9BD5" stroke-width="4.58333" stroke-miterlimit="8" fill="none" fill-rule="evenodd"/><path d="M1536.5 1084.5 1536.5 2116.06 1575.09 2116.06" stroke="#5B9BD5" stroke-width="4.58333" stroke-miterlimit="8" fill="none" fill-rule="evenodd"/><path d="M1536.5 1084.5 1536.5 1933.42 1575.09 1933.42" stroke="#5B9BD5" stroke-width="4.58333" stroke-miterlimit="8" fill="none" fill-rule="evenodd"/><path d="M1536.5 1084.5 1536.5 1750.77 1575.09 1750.77" stroke="#5B9BD5" stroke-width="4.58333" stroke-miterlimit="8" fill="none" fill-rule="evenodd"/><path d="M1536.5 1084.5 1536.5 1568.12 1575.09 1568.12" stroke="#5B9BD5" stroke-width="4.58333" stroke-miterlimit="8" fill="none" fill-rule="evenodd"/><path d="M1536.5 1084.5 1536.5 1385.48 1575.09 1385.48" stroke="#5B9BD5" stroke-width="4.58333" stroke-miterlimit="8" fill="none" fill-rule="evenodd"/><path d="M1536.5 1084.5 1536.5 1202.83 1575.09 1202.83" stroke="#5B9BD5" stroke-width="4.58333" stroke-miterlimit="8" fill="none" fill-rule="evenodd"/><path d="M1639 901.5 1639 955.522" stroke="#5B9BD5" stroke-width="4.58333" stroke-miterlimit="8" fill="none" fill-rule="evenodd"/><path d="M1607 719.5 1607 746.511 1639.16 746.511 1639.16 773.522" stroke="#FFC000" stroke-width="4.58333" stroke-miterlimit="8" fill="none" fill-rule="evenodd"/><path d="M1160.5 901.5 1160.5 1567.77 1199.09 1567.77" stroke="#5B9BD5" stroke-width="4.58333" stroke-miterlimit="8" fill="none" fill-rule="evenodd"/><path d="M1160.5 901.5 1160.5 1385.12 1199.09 1385.12" stroke="#5B9BD5" stroke-width="4.58333" stroke-miterlimit="8" fill="none" fill-rule="evenodd"/><path d="M1160.5 901.5 1160.5 1202.48 1199.09 1202.48" stroke="#5B9BD5" stroke-width="4.58333" stroke-miterlimit="8" fill="none" fill-rule="evenodd"/><path d="M1160.5 901.5 1160.5 1019.83 1199.09 1019.83" stroke="#5B9BD5" stroke-width="4.58333" stroke-miterlimit="8" fill="none" fill-rule="evenodd"/><path d="M1606.92 719.5 1606.92 746.511 1263.5 746.511 1263.5 773.522" stroke="#FFC000" stroke-width="4.58333" stroke-miterlimit="8" fill="none" fill-rule="evenodd"/><path d="M849.5 901.5 849.5 1750.42 888.087 1750.42" stroke="#5B9BD5" stroke-width="4.58333" stroke-miterlimit="8" fill="none" fill-rule="evenodd"/><path d="M849.5 901.5 849.5 1567.77 888.087 1567.77" stroke="#5B9BD5" stroke-width="4.58333" stroke-miterlimit="8" fill="none" fill-rule="evenodd"/><path d="M849.5 901.5 849.5 1385.12 888.087 1385.12" stroke="#5B9BD5" stroke-width="4.58333" stroke-miterlimit="8" fill="none" fill-rule="evenodd"/><path d="M849.5 901.5 849.5 1202.48 888.087 1202.48" stroke="#5B9BD5" stroke-width="4.58333" stroke-miterlimit="8" fill="none" fill-rule="evenodd"/><path d="M849.5 901.5 849.5 1019.83 888.087 1019.83" stroke="#5B9BD5" stroke-width="4.58333" stroke-miterlimit="8" fill="none" fill-rule="evenodd"/><path d="M1607.19 719.5 1607.19 746.511 952.5 746.511 952.5 773.522" stroke="#FFC000" stroke-width="4.58333" stroke-miterlimit="8" fill="none" fill-rule="evenodd"/><path d="M2212.96 536.5 2212.96 563.511 1606.5 563.511 1606.5 590.522" stroke="#A5A5A5" stroke-width="4.58333" stroke-miterlimit="8" fill="none" fill-rule="evenodd"/><rect x="2084.5" y="408.5" width="257" height="128" stroke="#FFFFFF" stroke-width="4.58333" stroke-miterlimit="8" fill="#4472C4"/><text fill="#FFFFFF" font-family="Tahoma,Tahoma_MSFontService,sans-serif" font-weight="400" font-size="37" transform="matrix(1 0 0 1 2104.62 484)">My Computer</text><rect x="1478.5" y="590.5" width="257" height="129" stroke="#FFFFFF" stroke-width="4.58333" stroke-miterlimit="8" fill="#A5A5A5"/><text fill="#FFFFFF" font-family="Tahoma,Tahoma_MSFontService,sans-serif" font-weight="400" font-size="37" transform="matrix(1 0 0 1 1581.74 667)">C:</text><text fill="#FFFFFF" font-family="Tahoma,Tahoma_MSFontService,sans-serif" font-weight="400" font-size="37" transform="matrix(1 0 0 1 1616.74 667)">\</text><rect x="823.5" y="773.5" width="257" height="128" stroke="#FFFFFF" stroke-width="4.58333" stroke-miterlimit="8" fill="#FFC000"/><text fill="#FFFFFF" font-family="Tahoma,Tahoma_MSFontService,sans-serif" font-weight="400" font-size="37" transform="matrix(1 0 0 1 883.131 829)">Program </text><text fill="#FFFFFF" font-family="Tahoma,Tahoma_MSFontService,sans-serif" font-weight="400" font-size="37" transform="matrix(1 0 0 1 872.658 869)">Files(x86)</text><rect x="887.5" y="955.5" width="257" height="129" stroke="#FFFFFF" stroke-width="4.58333" stroke-miterlimit="8" fill="#5B9BD5"/><text fill="#FFFFFF" font-family="Tahoma,Tahoma_MSFontService,sans-serif" font-weight="400" font-size="37" transform="matrix(1 0 0 1 965.02 1032)">Adobe</text><rect x="887.5" y="1138.5" width="257" height="129" stroke="#FFFFFF" stroke-width="4.58333" stroke-miterlimit="8" fill="#5B9BD5"/><text fill="#FFFFFF" font-family="Tahoma,Tahoma_MSFontService,sans-serif" font-weight="400" font-size="37" transform="matrix(1 0 0 1 889.762 1214)">Microsoft Office</text><rect x="887.5" y="1321.5" width="257" height="128" stroke="#FFFFFF" stroke-width="4.58333" stroke-miterlimit="8" fill="#5B9BD5"/><text fill="#FFFFFF" font-family="Tahoma,Tahoma_MSFontService,sans-serif" font-weight="400" font-size="37" transform="matrix(1 0 0 1 889.338 1377)">Microsoft Visual </text><text fill="#FFFFFF" font-family="Tahoma,Tahoma_MSFontService,sans-serif" font-weight="400" font-size="37" transform="matrix(1 0 0 1 965.032 1417)">Studio</text><rect x="887.5" y="1503.5" width="257" height="129" stroke="#FFFFFF" stroke-width="4.58333" stroke-miterlimit="8" fill="#5B9BD5"/><text fill="#FFFFFF" font-family="Tahoma,Tahoma_MSFontService,sans-serif" font-weight="400" font-size="37" transform="matrix(1 0 0 1 943.032 1560)">Windows </text><text fill="#FFFFFF" font-family="Tahoma,Tahoma_MSFontService,sans-serif" font-weight="400" font-size="37" transform="matrix(1 0 0 1 941.702 1600)">Defender</text><rect x="887.5" y="1686.5" width="257" height="129" stroke="#FFFFFF" stroke-width="4.58333" stroke-miterlimit="8" fill="#5B9BD5"/><text fill="#FFFFFF" font-family="Tahoma,Tahoma_MSFontService,sans-serif" font-weight="400" font-size="37" transform="matrix(1 0 0 1 999.235 1762)">...</text><rect x="1134.5" y="773.5" width="257" height="128" stroke="#FFFFFF" stroke-width="4.58333" stroke-miterlimit="8" fill="#FFC000"/><text fill="#FFFFFF" font-family="Tahoma,Tahoma_MSFontService,sans-serif" font-weight="400" font-size="37" transform="matrix(1 0 0 1 1152.89 849)">Program Files</text><rect x="1199.5" y="955.5" width="257" height="129" stroke="#FFFFFF" stroke-width="4.58333" stroke-miterlimit="8" fill="#5B9BD5"/><text fill="#FFFFFF" font-family="Tahoma,Tahoma_MSFontService,sans-serif" font-weight="400" font-size="37" transform="matrix(1 0 0 1 1220.07 1012)">Cheat Engine </text><text fill="#FFFFFF" font-family="Tahoma,Tahoma_MSFontService,sans-serif" font-weight="400" font-size="37" transform="matrix(1 0 0 1 1301.59 1052)">7.5</text><rect x="1199.5" y="1138.5" width="257" height="129" stroke="#FFFFFF" stroke-width="4.58333" stroke-miterlimit="8" fill="#5B9BD5"/><text fill="#FFFFFF" font-family="Tahoma,Tahoma_MSFontService,sans-serif" font-weight="400" font-size="37" transform="matrix(1 0 0 1 1260.41 1214)">MATLAB</text><rect x="1199.5" y="1321.5" width="257" height="128" stroke="#FFFFFF" stroke-width="4.58333" stroke-miterlimit="8" fill="#5B9BD5"/><text fill="#FFFFFF" font-family="Tahoma,Tahoma_MSFontService,sans-serif" font-weight="400" font-size="37" transform="matrix(1 0 0 1 1232.61 1397)">Notepad++</text><rect x="1199.5" y="1503.5" width="257" height="129" stroke="#FFFFFF" stroke-width="4.58333" stroke-miterlimit="8" fill="#5B9BD5"/><text fill="#FFFFFF" font-family="Tahoma,Tahoma_MSFontService,sans-serif" font-weight="400" font-size="37" transform="matrix(1 0 0 1 1310.5 1580)">...</text><rect x="1510.5" y="773.5" width="257" height="128" stroke="#FFFFFF" stroke-width="4.58333" stroke-miterlimit="8" fill="#FFC000"/><text fill="#FFFFFF" font-family="Tahoma,Tahoma_MSFontService,sans-serif" font-weight="400" font-size="37" transform="matrix(1 0 0 1 1593.77 849)">Users</text><rect x="1510.5" y="955.5" width="257" height="129" stroke="#FFFFFF" stroke-width="4.58333" stroke-miterlimit="8" fill="#5B9BD5"/><text fill="#FFFFFF" font-family="Tahoma,Tahoma_MSFontService,sans-serif" font-weight="400" font-size="37" transform="matrix(1 0 0 1 1592.61 1032)">Jacob</text><rect x="1574.5" y="1138.5" width="257" height="129" stroke="#FFFFFF" stroke-width="4.58333" stroke-miterlimit="8" fill="#5B9BD5"/><text fill="#FFFFFF" font-family="Tahoma,Tahoma_MSFontService,sans-serif" font-weight="400" font-size="37" transform="matrix(1 0 0 1 1633.66 1214)">AppData</text><rect x="1574.5" y="1321.5" width="257" height="128" stroke="#FFFFFF" stroke-width="4.58333" stroke-miterlimit="8" fill="#5B9BD5"/><text fill="#FFFFFF" font-family="Tahoma,Tahoma_MSFontService,sans-serif" font-weight="400" font-size="37" transform="matrix(1 0 0 1 1637.11 1397)">Desktop</text><rect x="1574.5" y="1503.5" width="257" height="129" stroke="#FFFFFF" stroke-width="4.58333" stroke-miterlimit="8" fill="#5B9BD5"/><text fill="#FFFFFF" font-family="Tahoma,Tahoma_MSFontService,sans-serif" font-weight="400" font-size="37" transform="matrix(1 0 0 1 1612.08 1580)">Documents</text><rect x="1574.5" y="1686.5" width="257" height="129" stroke="#FFFFFF" stroke-width="4.58333" stroke-miterlimit="8" fill="#5B9BD5"/><text fill="#FFFFFF" font-family="Tahoma,Tahoma_MSFontService,sans-serif" font-weight="400" font-size="37" transform="matrix(1 0 0 1 1657.54 1762)">Music</text><rect x="1574.5" y="1869.5" width="257" height="128" stroke="#FFFFFF" stroke-width="4.58333" stroke-miterlimit="8" fill="#5B9BD5"/><text fill="#FFFFFF" font-family="Tahoma,Tahoma_MSFontService,sans-serif" font-weight="400" font-size="37" transform="matrix(1 0 0 1 1639.17 1945)">Pictures</text><rect x="1574.5" y="2051.5" width="257" height="129" stroke="#FFFFFF" stroke-width="4.58333" stroke-miterlimit="8" fill="#5B9BD5"/><text fill="#FFFFFF" font-family="Tahoma,Tahoma_MSFontService,sans-serif" font-weight="400" font-size="37" transform="matrix(1 0 0 1 1649.67 2128)">Videos</text><rect x="1574.5" y="2234.5" width="257" height="129" stroke="#FFFFFF" stroke-width="4.58333" stroke-miterlimit="8" fill="#5B9BD5"/><text fill="#FFFFFF" font-family="Tahoma,Tahoma_MSFontService,sans-serif" font-weight="400" font-size="37" transform="matrix(1 0 0 1 1686.08 2310)">...</text><rect x="1821.5" y="773.5" width="257" height="128" stroke="#FFFFFF" stroke-width="4.58333" stroke-miterlimit="8" fill="#FFC000"/><text fill="#FFFFFF" font-family="Tahoma,Tahoma_MSFontService,sans-serif" font-weight="400" font-size="37" transform="matrix(1 0 0 1 1876.85 849)">Windows</text><rect x="2132.5" y="773.5" width="258" height="128" stroke="#FFFFFF" stroke-width="4.58333" stroke-miterlimit="8" fill="#FFC000"/><text fill="#FFFFFF" font-family="Tahoma,Tahoma_MSFontService,sans-serif" font-weight="400" font-size="37" transform="matrix(1 0 0 1 2244.31 849)">...</text><rect x="2379.5" y="590.5" width="258" height="129" stroke="#FFFFFF" stroke-width="4.58333" stroke-miterlimit="8" fill="#A5A5A5"/><text fill="#FFFFFF" font-family="Tahoma,Tahoma_MSFontService,sans-serif" font-weight="400" font-size="37" transform="matrix(1 0 0 1 2389.58 667)">D:</text><text fill="#FFFFFF" font-family="Tahoma,Tahoma_MSFontService,sans-serif" font-weight="400" font-size="37" transform="matrix(1 0 0 1 2427.41 667)">\</text><text fill="#FFFFFF" font-family="Tahoma,Tahoma_MSFontService,sans-serif" font-weight="400" font-size="37" transform="matrix(1 0 0 1 2452.89 667)">(ESD</text><text fill="#FFFFFF" font-family="Tahoma,Tahoma_MSFontService,sans-serif" font-weight="400" font-size="37" transform="matrix(1 0 0 1 2532.8 667)">-</text><text fill="#FFFFFF" font-family="Tahoma,Tahoma_MSFontService,sans-serif" font-weight="400" font-size="37" transform="matrix(1 0 0 1 2546.12 667)">USB)</text><rect x="2444.5" y="773.5" width="257" height="128" stroke="#FFFFFF" stroke-width="4.58333" stroke-miterlimit="8" fill="#FFC000"/><text fill="#FFFFFF" font-family="Tahoma,Tahoma_MSFontService,sans-serif" font-weight="400" font-size="37" transform="matrix(1 0 0 1 2552.54 849)">efi</text><rect x="2444.5" y="955.5" width="257" height="129" stroke="#FFFFFF" stroke-width="4.58333" stroke-miterlimit="8" fill="#FFC000"/><text fill="#FFFFFF" font-family="Tahoma,Tahoma_MSFontService,sans-serif" font-weight="400" font-size="37" transform="matrix(1 0 0 1 2510.86 1032)">support</text><rect x="2444.5" y="1138.5" width="257" height="129" stroke="#FFFFFF" stroke-width="4.58333" stroke-miterlimit="8" fill="#FFC000"/><text fill="#FFFFFF" font-family="Tahoma,Tahoma_MSFontService,sans-serif" font-weight="400" font-size="37" transform="matrix(1 0 0 1 2536.04 1214)">boot</text><rect x="2444.5" y="1321.5" width="257" height="128" stroke="#FFFFFF" stroke-width="4.58333" stroke-miterlimit="8" fill="#FFC000"/><text fill="#FFFFFF" font-family="Tahoma,Tahoma_MSFontService,sans-serif" font-weight="400" font-size="37" transform="matrix(1 0 0 1 2510.96 1397)">sources</text><rect x="2444.5" y="1503.5" width="257" height="129" stroke="#FFFFFF" stroke-width="4.58333" stroke-miterlimit="8" fill="#FFC000"/><text fill="#FFFFFF" font-family="Tahoma,Tahoma_MSFontService,sans-serif" font-weight="400" font-size="37" transform="matrix(1 0 0 1 2509.66 1540)">'System </text><text fill="#FFFFFF" font-family="Tahoma,Tahoma_MSFontService,sans-serif" font-weight="400" font-size="37" transform="matrix(1 0 0 1 2511.86 1580)">Volume </text><text fill="#FFFFFF" font-family="Tahoma,Tahoma_MSFontService,sans-serif" font-weight="400" font-size="37" transform="matrix(1 0 0 1 2473.36 1620)">Information'</text><rect x="2444.5" y="1686.5" width="257" height="129" stroke="#FFFFFF" stroke-width="4.58333" stroke-miterlimit="8" fill="#FFC000"/><text fill="#FFFFFF" font-family="Tahoma,Tahoma_MSFontService,sans-serif" font-weight="400" font-size="37" transform="matrix(1 0 0 1 2555.58 1762)">...</text><rect x="2691.5" y="590.5" width="257" height="129" stroke="#FFFFFF" stroke-width="4.58333" stroke-miterlimit="8" fill="#A5A5A5"/><text fill="#FFFFFF" font-family="Tahoma,Tahoma_MSFontService,sans-serif" font-weight="400" font-size="37" transform="matrix(1 0 0 1 2802.54 667)">...</text></g></svg>